<svg width="28" height="28" viewBox="0 0 28 28" fill="none" xmlns="http://www.w3.org/2000/svg">
<path d="M14.0004 25.6667C20.4435 25.6665 25.6664 20.4429 25.6664 13.9997C25.6662 7.55662 20.4434 2.33384 14.0004 2.33366C7.55715 2.33366 2.33355 7.55651 2.33337 13.9997C2.33337 20.443 7.55704 25.6667 14.0004 25.6667ZM16.1576 18.445C15.8288 18.799 15.2754 18.8195 14.9213 18.4909L11.7582 15.5544C10.8884 14.7467 10.8886 13.3699 11.7582 12.5622L14.9213 9.62468C15.2753 9.29637 15.8289 9.31681 16.1576 9.67058C16.4864 10.0247 16.4657 10.579 16.1117 10.9079L12.9486 13.8444C12.8247 13.9598 12.8245 14.1568 12.9486 14.2721L16.1117 17.2087C16.4657 17.5375 16.4863 18.0909 16.1576 18.445Z" fill="#A3ADC2"/>
</svg>
