<svg width="56" height="56" viewBox="0 0 56 56" fill="none" xmlns="http://www.w3.org/2000/svg">
<rect width="56" height="56" rx="16" fill="black"/>
<g clip-path="url(#clip0_383_14446)">
<g opacity="0.6" filter="url(#filter0_f_383_14446)">
<path fill-rule="evenodd" clip-rule="evenodd" d="M32.0543 18.0861C33.2785 19.3103 35.2633 19.3104 36.4876 18.0863L38.3803 16.1939C39.6046 14.9698 41.5894 14.9698 42.8136 16.1941L44.8354 18.2158C46.0596 19.4401 46.0597 21.425 44.8354 22.6493L42.8138 24.6709C41.5895 25.8952 39.6046 25.8952 38.3803 24.6709L36.5003 22.7909C35.276 21.5666 33.2911 21.5666 32.0668 22.7909L23.8753 30.9824C22.651 32.2067 20.6661 32.2067 19.4418 30.9824L11.1213 22.6619C9.89709 21.4377 9.89705 19.4528 11.1212 18.2285L19.4418 9.90729C20.6661 8.68293 22.6511 8.68289 23.8754 9.90721L32.0543 18.0861Z" fill="#167EB4"/>
</g>
<g opacity="0.5" filter="url(#filter1_f_383_14446)">
<path fill-rule="evenodd" clip-rule="evenodd" d="M32.0543 18.0861C33.2785 19.3103 35.2633 19.3104 36.4876 18.0863L38.3803 16.1939C39.6046 14.9698 41.5894 14.9698 42.8136 16.1941L44.8354 18.2158C46.0596 19.4401 46.0597 21.425 44.8354 22.6493L42.8138 24.6709C41.5895 25.8952 39.6046 25.8952 38.3803 24.6709L36.5003 22.7909C35.276 21.5666 33.2911 21.5666 32.0668 22.7909L23.8753 30.9824C22.651 32.2067 20.6661 32.2067 19.4418 30.9824L11.1213 22.6619C9.89709 21.4377 9.89705 19.4528 11.1212 18.2285L19.4418 9.90729C20.6661 8.68293 22.6511 8.68289 23.8754 9.90721L32.0543 18.0861Z" fill="#167EB4"/>
</g>
<g opacity="0.5" filter="url(#filter2_f_383_14446)">
<path fill-rule="evenodd" clip-rule="evenodd" d="M23.9077 33.1558C22.6835 34.38 20.6987 34.3801 19.4744 33.1559L17.5819 31.2637C16.3575 30.0396 14.3726 30.0397 13.1484 31.2641L11.1271 33.2857C9.90305 34.5099 9.90305 36.4946 11.1271 37.7188L13.1482 39.7402C14.3725 40.9647 16.3575 40.9647 17.5819 39.7404L19.4616 37.8607C20.6859 36.6364 22.6709 36.6364 23.8952 37.8608L32.0857 46.0519C33.31 47.2763 35.295 47.2763 36.5193 46.052L44.8396 37.7317C46.0639 36.5074 46.0639 34.5225 44.8396 33.2982L36.5192 24.9778C35.2949 23.7535 33.31 23.7535 32.0857 24.9778L23.9077 33.1558Z" fill="#167EB4"/>
</g>
<path fill-rule="evenodd" clip-rule="evenodd" d="M32.0543 18.0861C33.2785 19.3103 35.2633 19.3104 36.4876 18.0863L38.3803 16.1939C39.6046 14.9698 41.5894 14.9698 42.8136 16.1941L44.8354 18.2158C46.0596 19.4401 46.0597 21.425 44.8354 22.6493L42.8138 24.6709C41.5895 25.8952 39.6046 25.8952 38.3803 24.6709L36.5003 22.7909C35.276 21.5666 33.2911 21.5666 32.0668 22.7909L23.8753 30.9824C22.651 32.2067 20.6661 32.2067 19.4418 30.9824L11.1213 22.6619C9.89709 21.4377 9.89705 19.4528 11.1212 18.2285L19.4418 9.90729C20.6661 8.68293 22.6511 8.68289 23.8754 9.90721L32.0543 18.0861Z" fill="#167EB4"/>
<path fill-rule="evenodd" clip-rule="evenodd" d="M23.9077 33.0712C22.6835 34.2954 20.6987 34.2955 19.4744 33.0714L17.5819 31.1792C16.3575 29.955 14.3726 29.9551 13.1484 31.1795L11.1271 33.2011C9.90305 34.4253 9.90305 36.41 11.1271 37.6343L13.1482 39.6557C14.3725 40.8801 16.3575 40.8802 17.5819 39.6558L19.4616 37.7761C20.6859 36.5518 22.6709 36.5518 23.8952 37.7762L32.0857 45.9673C33.31 47.1917 35.295 47.1917 36.5193 45.9674L44.8396 37.6471C46.0639 36.4228 46.0639 34.4379 44.8396 33.2136L36.5192 24.8932C35.2949 23.6689 33.31 23.6689 32.0857 24.8932L23.9077 33.0712Z" fill="#167EB4"/>
<path d="M20.0461 20.8431V22.4548H19.2402V23.2606H20.449V24.0664H21.2548V23.2606H22.0606V24.0664H22.8664V23.24C23.6593 23.1397 24.2766 22.4685 24.2766 21.6489C24.2766 21.1171 24.0147 20.6481 23.6158 20.3544C23.9101 20.0547 24.075 19.6515 24.0751 19.2315C24.0751 18.4829 23.5598 17.8572 22.8664 17.6771V16.814H22.0606V17.6198H21.2548V16.814H20.449V17.6198H19.2402V18.4257H20.0461V20.8431ZM22.665 22.4548H20.8519V20.8431H22.665C23.1094 20.8431 23.4708 21.2045 23.4708 21.6489C23.4708 22.0933 23.1094 22.4548 22.665 22.4548ZM20.8519 18.4257H22.4635C22.9079 18.4257 23.2693 18.7871 23.2693 19.2315C23.2693 19.6759 22.9079 20.0373 22.4635 20.0373H20.8519V18.4257Z" fill="white"/>
<g clip-path="url(#clip1_383_14446)">
<path fill-rule="evenodd" clip-rule="evenodd" d="M38.9878 18.5686C39.0023 18.5527 39.0207 18.5411 39.0412 18.5348C39.0617 18.5285 39.0835 18.5279 39.1044 18.533L41.6107 19.1466C41.6258 19.1501 41.6396 19.1565 41.6522 19.1659L42.1621 19.5379C42.1869 19.5561 42.2037 19.5832 42.209 19.6136C42.2143 19.6439 42.2077 19.6751 42.1905 19.7007L40.436 22.2676C40.4237 22.2858 40.4065 22.3002 40.3865 22.3092C40.3664 22.3182 40.3443 22.3215 40.3225 22.3186C40.3007 22.3158 40.2802 22.3069 40.2631 22.2931C40.2461 22.2792 40.2332 22.2608 40.226 22.2401L38.9638 18.6882C38.9567 18.668 38.9551 18.6462 38.9593 18.6252C38.9636 18.6042 38.9733 18.5847 38.9876 18.5688M39.4015 19.2099L40.2774 21.6758L40.4214 20.398L39.4015 19.2099ZM40.656 20.4391L40.5097 21.7391L41.7484 19.9263L40.656 20.4391ZM41.8602 19.6116L41.0621 19.9862L41.5968 19.4196L41.8602 19.6116ZM41.3558 19.3289L39.4072 18.8517L40.5497 20.182L41.3558 19.3289Z" fill="white"/>
</g>
<path d="M34.2975 31.3055L31.7793 35.5361L34.2975 37.047L36.8157 35.5361L34.2975 31.3055ZM31.7793 36.0397L34.2975 39.5652L36.8157 36.0397L34.2975 37.5506L31.7793 36.0397Z" fill="white"/>
<g clip-path="url(#clip2_383_14446)">
<path d="M16.8901 34.5694L15.5107 36.7659C15.4853 36.8062 15.4455 36.8351 15.3994 36.8469C15.3533 36.8587 15.3045 36.8523 15.2629 36.8292C15.2354 36.8138 15.2121 36.7917 15.1952 36.765L13.8429 34.5684C13.805 34.5069 13.785 34.436 13.7852 34.3637C13.7869 34.257 13.8308 34.1553 13.9074 34.081C13.984 34.0066 14.087 33.9657 14.1937 33.9672H16.5429C16.7671 33.9672 16.9496 34.1441 16.9496 34.3627C16.9496 34.4355 16.929 34.507 16.8899 34.5694M14.1749 34.496L15.1811 36.0473V34.3395H14.2801C14.176 34.3395 14.1293 34.4085 14.175 34.496M15.5534 36.0473L16.5597 34.496C16.6061 34.4085 16.5586 34.3395 16.4545 34.3395H15.5534V36.0473Z" fill="white"/>
</g>
</g>
<defs>
<filter id="filter0_f_383_14446" x="9.59821" y="8.38408" width="36.7606" height="24.1214" filterUnits="userSpaceOnUse" color-interpolation-filters="sRGB">
<feFlood flood-opacity="0" result="BackgroundImageFix"/>
<feBlend mode="normal" in="SourceGraphic" in2="BackgroundImageFix" result="shape"/>
<feGaussianBlur stdDeviation="0.302458" result="effect1_foregroundBlur_383_14446"/>
</filter>
<filter id="filter1_f_383_14446" x="6.80544" y="5.59132" width="42.3461" height="29.707" filterUnits="userSpaceOnUse" color-interpolation-filters="sRGB">
<feFlood flood-opacity="0" result="BackgroundImageFix"/>
<feBlend mode="normal" in="SourceGraphic" in2="BackgroundImageFix" result="shape"/>
<feGaussianBlur stdDeviation="1.69884" result="effect1_foregroundBlur_383_14446"/>
</filter>
<filter id="filter2_f_383_14446" x="6.9261" y="20.7767" width="42.1146" height="29.4764" filterUnits="userSpaceOnUse" color-interpolation-filters="sRGB">
<feFlood flood-opacity="0" result="BackgroundImageFix"/>
<feBlend mode="normal" in="SourceGraphic" in2="BackgroundImageFix" result="shape"/>
<feGaussianBlur stdDeviation="1.64144" result="effect1_foregroundBlur_383_14446"/>
</filter>
<clipPath id="clip0_383_14446">
<rect width="41.9799" height="41.9799" fill="white" transform="translate(7 7)"/>
</clipPath>
<clipPath id="clip1_383_14446">
<rect width="4.54791" height="4.54791" fill="white" transform="translate(38.3164 18.1489)"/>
</clipPath>
<clipPath id="clip2_383_14446">
<rect width="3.79728" height="3.79728" fill="white" transform="translate(13.4629 33.515)"/>
</clipPath>
</defs>
</svg>
