<svg width="56" height="56" viewBox="0 0 56 56" fill="none" xmlns="http://www.w3.org/2000/svg">
<rect width="56" height="56" rx="12" fill="#0D0D0D"/>
<path d="M34.6665 16.3333C38.9007 16.3333 42.3335 19.7661 42.3335 24.0002V32.0002C42.3333 36.2343 38.9006 39.6663 34.6665 39.6663H21.3335C17.0994 39.6663 13.6667 36.2343 13.6665 32.0002V24.0002C13.6665 19.7661 17.0993 16.3333 21.3335 16.3333H34.6665ZM20.5991 23.2004C20.1573 22.8692 19.531 22.9589 19.1997 23.4006C18.8689 23.8424 18.9583 24.4688 19.3999 24.8L25.7993 29.5999C27.1029 30.5775 28.896 30.5773 30.1997 29.5999L36.5991 24.8C37.0408 24.4688 37.1304 23.8424 36.7993 23.4006C36.468 22.9589 35.8417 22.8692 35.3999 23.2004L28.9995 28.0002C28.407 28.4444 27.592 28.4446 26.9995 28.0002L20.5991 23.2004Z" fill="white"/>
</svg>
