<svg width="56" height="56" viewBox="0 0 56 56" fill="none" xmlns="http://www.w3.org/2000/svg">
<rect width="56" height="56" rx="16" fill="#00C0FF"/>
<path d="M45.8512 37.3937C45.5122 36.7572 44.7157 36.5123 44.074 36.8486L28.5857 44.9572C27.5786 45.4828 26.3938 45.4599 25.4098 44.8985L13.2818 37.9519C12.2681 37.3709 11.6395 36.2904 11.6395 35.1283V26.6246C11.6395 25.4462 12.255 24.3918 13.2818 23.801C14.3119 23.2134 15.5395 23.2134 16.5697 23.801L36.0238 34.9422C37.8767 36.0031 40.0884 36.0031 41.9446 34.9422C43.7975 33.8813 44.9033 31.9814 44.9033 29.8563V21.3527C44.9033 19.2602 43.7679 17.3147 41.9248 16.257L29.0202 9.1636C28.385 8.81432 27.5819 9.04282 27.2298 9.67284C26.8776 10.3029 27.108 11.0994 27.7432 11.4486L40.6182 18.529C41.6319 19.1101 42.2605 20.1906 42.2605 21.3527V29.8563C42.2605 31.0348 41.6451 32.0891 40.6182 32.68C39.5881 33.2708 38.3605 33.2708 37.3304 32.68L17.8796 21.5388C16.0266 20.4778 13.8117 20.4778 11.9588 21.5388C10.1058 22.5997 9 24.4995 9 26.6214V35.125C9 37.2174 10.1355 39.163 11.9588 40.2109L24.0867 47.1574C25.0082 47.683 26.0252 47.9474 27.0455 47.9474C27.99 47.9474 28.9379 47.7189 29.81 47.2651L45.2983 39.1565C45.9401 38.8202 46.1869 38.0303 45.8479 37.3937H45.8512Z" fill="white"/>
<path d="M22.4412 14.3672L34.5494 21.0363C35.698 21.6957 36.4122 22.9264 36.4122 24.2451V29.0568C36.4122 29.7782 37.0013 30.3625 37.7286 30.3625C38.456 30.3625 39.0451 29.7782 39.0451 29.0568V24.2451C39.0451 21.9993 37.8274 19.9036 35.8494 18.7643L23.7181 12.0854C23.0829 11.7362 22.2799 11.9614 21.9277 12.5914C21.5756 13.2214 21.8027 14.0179 22.4379 14.3672H22.4412Z" fill="white"/>
<path d="M16.9305 17.2641L28.5944 23.5447L28.8972 23.7242C29.7101 24.2106 30.2696 25.0234 30.4342 25.9505C30.5461 26.5838 31.1023 27.031 31.7276 27.031C31.8033 27.031 31.879 27.0245 31.958 27.0114C32.6755 26.8874 33.1527 26.2084 33.0276 25.5C32.7314 23.8287 31.721 22.3695 30.2565 21.4914L29.9306 21.2955L18.1878 14.9692C17.5493 14.6265 16.7495 14.8615 16.4039 15.4948C16.0584 16.1281 16.2953 16.9213 16.9338 17.2641H16.9305Z" fill="white"/>
</svg>
