<svg width="56" height="56" viewBox="0 0 56 56" fill="none" xmlns="http://www.w3.org/2000/svg">
<rect width="56" height="56" rx="16" fill="#0D0D0D"/>
<path d="M16.8737 39.4448C14.7531 39.4448 12.9752 39.1872 11.54 38.6719C10.1048 38.1352 9.0017 37.3408 8.23057 36.2888C7.61163 35.4203 7.20438 34.3835 7.00882 33.1784C6.94051 32.7575 7.27815 32.3921 7.70365 32.3921H13.4499C13.7966 32.3921 14.0826 32.6434 14.218 32.9633C14.3706 33.3238 14.5918 33.6057 14.8816 33.809C15.31 34.0882 15.974 34.2277 16.8737 34.2277C17.859 34.2277 18.5766 34.0989 19.0264 33.8413C19.4762 33.5836 19.7012 33.1972 19.7012 32.6819C19.7012 32.274 19.5405 31.9412 19.2192 31.6836C18.9193 31.4259 18.4052 31.2005 17.6769 31.0073C16.9701 30.7926 16.0276 30.5564 14.8495 30.2988C13.3929 29.9767 12.1184 29.5473 11.0259 29.0106C9.93348 28.4524 9.07667 27.7009 8.45548 26.7563C7.85571 25.7901 7.55582 24.5449 7.55582 23.0206C7.55582 21.4748 7.94139 20.1866 8.71252 19.156C9.48366 18.1255 10.5654 17.3419 11.9577 16.8051C13.3714 16.2684 15.0101 16 16.8737 16C18.8872 16 20.558 16.2684 21.886 16.8051C23.2355 17.3419 24.2744 18.1148 25.0027 19.1238C25.6048 19.9342 26.0134 20.8691 26.2287 21.9287C26.315 22.3535 25.9748 22.7307 25.5423 22.7307H19.8309C19.4773 22.7307 19.1933 22.4641 19.0272 22.1512C18.9105 21.9312 18.7495 21.7487 18.5445 21.6036C18.1803 21.3459 17.6234 21.2171 16.8737 21.2171C16.1025 21.2171 15.5456 21.3459 15.2029 21.6036C14.8602 21.8612 14.6888 22.2262 14.6888 22.6985C14.6888 23.2997 15.0208 23.7398 15.6848 24.0189C16.3489 24.298 17.4413 24.5771 18.9622 24.8562C20.0118 25.0709 21.0078 25.3393 21.9503 25.6613C22.8928 25.9619 23.7282 26.3806 24.4565 26.9173C25.2062 27.454 25.7845 28.1411 26.1915 28.9784C26.6199 29.7942 26.8341 30.8033 26.8341 32.0056C26.8341 33.6158 26.4271 34.9791 25.6132 36.0956C24.8206 37.212 23.6746 38.0493 22.1752 38.6075C20.6972 39.1657 18.93 39.4448 16.8737 39.4448Z" fill="white"/>
<path d="M31.3558 34.1727C31.3216 34.1526 31.2826 34.1416 31.243 34.1446C30.8995 34.1699 29.9883 34.366 30.1228 34.1419L33.6526 27.9757C33.7911 27.745 33.789 27.456 33.6471 27.2273L30.5523 21.6734C30.4041 21.4346 30.862 20.919 31.1427 20.919H35.8326C35.95 20.919 36.7713 20.8249 36.9358 20.8996C36.9554 20.9085 36.9689 20.9264 36.9847 20.941L37.9623 21.8426C37.9939 21.8717 38.0204 21.9059 38.0455 21.9409C38.3399 22.3506 38.9679 22.335 39.2363 21.8913L42.1177 17.1286C42.1826 17.0214 42.2985 16.956 42.4236 16.956H49.2281C49.5085 16.956 49.6799 17.2645 49.5322 17.5034L43.5568 27.167C43.4164 27.3941 43.4136 27.6806 43.5495 27.9104L49.8665 38.5893C50.0078 38.8283 49.836 39.1307 49.5588 39.1307H42.5591C42.4292 39.1307 42.3094 39.0601 42.2464 38.9462L39.179 32.7644C38.9125 32.2832 38.2315 32.2726 37.9466 32.7325C37.9337 32.7534 37.9202 32.7741 37.9049 32.7933L35.0211 36.4233C35.0135 36.433 35.0076 36.4457 34.9959 36.4494C34.9013 36.4796 34.4891 36.0088 34.311 35.9017C34.277 35.8812 34.2373 35.8696 34.2031 35.8495L31.3558 34.1727Z" fill="white"/>
<path fill-rule="evenodd" clip-rule="evenodd" d="M29.1792 35.8653C30.5308 35.8185 31.4584 35.9049 32.2436 36.2511C33.1024 36.6299 33.8677 37.3567 34.813 38.7921C32.5735 41.5485 28.5191 39.2214 29.1792 35.8653ZM37.9761 21.8527C38.0353 21.9414 38.0935 22.0299 38.1509 22.1163C37.3019 23.0302 36.5045 24.2126 36.1167 25.5734C35.8155 26.6306 35.7614 27.7984 36.1255 29.0138C36.4676 30.1553 37.1702 31.3075 38.3247 32.4357C37.2274 34.4766 37.146 34.6324 35.5083 37.67C34.6248 36.4175 33.7722 35.6096 32.729 35.1495C31.8201 34.7489 30.8137 34.6369 29.6157 34.6505C29.6537 34.5779 29.6941 34.5048 29.7368 34.4318C31.4736 31.4606 32.6898 29.2922 33.2817 28.2257C33.5363 27.7669 33.5154 27.2079 33.2309 26.7648L28.7417 19.7765H36.6645L37.9761 21.8527ZM38.8325 23.1583C40.7125 26.1008 41.1858 27.633 39.5161 30.2198C39.2944 30.6318 39.0971 30.9988 38.9204 31.3273C38.039 30.4044 37.5312 29.5087 37.2798 28.67C36.9893 27.7003 37.0286 26.7679 37.2749 25.9034C37.5711 24.8641 38.1667 23.9239 38.8325 23.1583ZM34.0786 16.9718C34.5861 16.9737 35.0588 17.2347 35.3276 17.6603L36.0425 18.7921H28.1831C27.9296 17.9063 28.5927 16.9531 29.602 16.9562L34.0786 16.9718Z" fill="url(#paint0_linear_502_50180)"/>
<defs>
<linearGradient id="paint0_linear_502_50180" x1="19.2035" y1="20.4822" x2="41.7987" y2="38.8309" gradientUnits="userSpaceOnUse">
<stop stop-color="#000AFF"/>
<stop offset="1" stop-color="#08E1FF"/>
</linearGradient>
</defs>
</svg>
